<svg width="20" height="20" viewBox="0 0 20 20" fill="none" xmlns="http://www.w3.org/2000/svg">
<g clip-path="url(#clip0_704_1983)">
<path d="M0.273438 10.6305V9.38102C0.28555 9.31789 0.29853 9.25476 0.308047 9.19163C0.379856 8.7164 0.416198 8.23328 0.528671 7.76857C1.27618 4.6787 3.06623 2.41302 5.87372 1.00136C7.73299 0.0666835 9.71338 -0.203374 11.7569 0.149103C14.3161 0.587508 16.4029 1.8694 17.9758 3.95883C19.6196 6.14647 20.2564 8.63047 19.9069 11.3547C19.6613 13.3244 18.822 15.1692 17.5034 16.6375C16.0384 18.3303 14.0444 19.4622 11.8547 19.844C11.4904 19.9115 11.121 19.9492 10.7533 20H9.52044C9.27993 19.9694 9.03854 19.9439 8.79889 19.9124C6.87257 19.651 5.06806 18.8094 3.61908 17.4968C1.93464 16.0103 0.807425 13.9807 0.427441 11.7502C0.361688 11.3775 0.324483 11.0022 0.273438 10.6305ZM10.1235 14.5472C11.7962 14.5472 13.4717 14.5472 15.1502 14.5472C15.9833 14.5472 16.4929 14.029 16.4938 13.1855V6.82425C16.4938 5.98076 15.9833 5.46432 15.1484 5.46432H5.134C4.28786 5.46432 3.78087 5.979 3.78087 6.83565C3.78087 8.93999 3.79558 11.0505 3.77308 13.1574C3.76443 13.9246 4.29911 14.5682 5.15737 14.5551C6.81072 14.5288 8.46753 14.5472 10.1235 14.5472Z" fill="white"/>
<path d="M10.1226 14.5471C8.46663 14.5471 6.80981 14.5287 5.15386 14.555C4.29821 14.5681 3.76353 13.9246 3.76958 13.1574C3.79208 11.053 3.7765 8.94253 3.77737 6.83556C3.77737 5.97892 4.28436 5.46423 5.1305 5.46423H15.1449C15.9798 5.46423 16.4894 5.98067 16.4903 6.82416V13.1854C16.4903 14.0289 15.9798 14.5462 15.1467 14.5471C13.4728 14.5483 11.7981 14.5483 10.1226 14.5471ZM4.80088 7.02057V13.1381C4.80088 13.4739 4.84672 13.5195 5.18068 13.5195H15.08C15.4261 13.5195 15.4711 13.4774 15.4711 13.1302V7.02057C15.3482 7.11789 15.2643 7.18453 15.1813 7.25205L10.5214 11.0004C10.2437 11.224 10.0309 11.224 9.75833 11.0057L6.5321 8.40943L4.80088 7.02057ZM14.4692 6.50676H5.85206C5.85725 6.56375 5.89186 6.57953 5.92041 6.60321C7.28393 7.69805 8.64571 8.79465 10.0058 9.89299C10.1191 9.98506 10.1788 9.95963 10.2818 9.87984C11.3402 9.02407 12.4003 8.17036 13.4622 7.31868L14.4692 6.50676Z" fill="white"/>
<path d="M4.80165 7.02063L6.532 8.46035L9.75824 11.1469C10.0308 11.3731 10.2436 11.3722 10.5213 11.1408C12.0752 9.84892 13.6285 8.5565 15.1812 7.2635L15.471 7.02414V13.3372C15.471 13.6966 15.4277 13.7396 15.0799 13.7396C11.7802 13.7396 8.48038 13.7396 5.1806 13.7396C4.84664 13.7396 4.80078 13.6931 4.80078 13.345V7.02063H4.80165Z" fill="black"/>
<path d="M14.4707 6.505L13.4636 7.31693C12.4029 8.17036 11.3428 9.02408 10.2832 9.87809C10.1846 9.95788 10.1206 9.9833 10.0072 9.89124C8.6489 8.79055 7.28712 7.69396 5.92187 6.60145C5.89332 6.57778 5.85871 6.562 5.85352 6.505H14.4707Z" fill="black"/>
</g>
<defs>
<clipPath id="clip0_704_1983">
<rect width="19.726" height="20" fill="white" transform="translate(0.273438)"/>
</clipPath>
</defs>
</svg>
