<svg width="20" height="20" viewBox="0 0 20 20" fill="none" xmlns="http://www.w3.org/2000/svg">
<g clip-path="url(#clip0_704_1953)">
<path d="M10.0376 19.9998C4.58911 19.9998 0.171417 15.5097 0.177741 9.9816C0.184065 4.46849 4.61125 -0.00824665 10.0529 -0.0002334C15.4945 0.00777985 19.9075 4.48719 19.9038 10.0067C19.9001 15.5262 15.4792 20.0014 10.0376 19.9998ZM16.1153 10.0099H16.1332C16.1332 9.26201 16.1379 8.51411 16.1306 7.77048C16.1323 7.47714 16.1138 7.18403 16.0752 6.8933C15.8855 5.61385 15.2616 4.65974 14.0384 4.17574C13.5337 3.98103 12.9976 3.88303 12.4575 3.88673C10.9117 3.88103 9.36692 3.88103 7.82321 3.88673C7.49482 3.88568 7.16687 3.91122 6.84249 3.96312C5.59987 4.17307 4.6787 4.81787 4.21812 6.04389C4.03563 6.54513 3.94509 7.07597 3.95094 7.61022C3.95094 9.16265 3.94778 10.7156 3.95094 12.2686C3.94918 12.5546 3.96856 12.8403 4.00891 13.1233C4.19072 14.3104 4.75143 15.2319 5.86283 15.7447C6.4054 15.9888 6.99301 16.113 7.58659 16.1091C9.2234 16.1187 10.86 16.1187 12.4965 16.1091C13.132 16.1048 13.7523 15.9841 14.3267 15.6924C15.5061 15.0941 16.0257 14.0561 16.1042 12.7846C16.1611 11.8636 16.1153 10.9346 16.1153 10.0083V10.0099Z" fill="white"/>
<path d="M16.1148 10.0086C16.1148 10.9349 16.1607 11.8639 16.1038 12.7865C16.0252 14.058 15.5056 15.0959 14.3262 15.6943C13.7518 15.9859 13.1316 16.1067 12.496 16.1109C10.8596 16.1223 9.22294 16.1223 7.58613 16.1109C6.99255 16.1149 6.40493 15.9907 5.86237 15.7466C4.75096 15.2338 4.19025 14.3122 4.00845 13.1252C3.9681 12.8422 3.94872 12.5564 3.95048 12.2705C3.94521 10.7175 3.94731 9.16453 3.95048 7.6121C3.94456 7.07766 4.03511 6.54664 4.21766 6.04524C4.67824 4.81654 5.59941 4.17548 6.84203 3.96447C7.16567 3.91214 7.49291 3.88606 7.82064 3.88647C9.36646 3.87899 10.9112 3.87899 12.4549 3.88647C12.995 3.88278 13.5311 3.98077 14.0359 4.17548C15.259 4.65948 15.8803 5.61359 16.0727 6.89304C16.1117 7.18321 16.1307 7.47577 16.1296 7.76862C16.137 8.51652 16.1322 9.26443 16.1322 10.0081L16.1148 10.0086ZM10.045 5.04038V5.02007C9.88694 5.02007 9.72885 5.02007 9.57075 5.02007C8.76921 5.0377 7.96556 5.02382 7.16718 5.08472C6.24496 5.15523 5.56094 5.62374 5.25581 6.53725C5.14169 6.88402 5.08107 7.24657 5.07611 7.6121C5.05661 9.15171 5.0661 10.6919 5.06926 12.232C5.07005 12.4384 5.08219 12.6446 5.10562 12.8496C5.23842 14.0286 6.01677 14.8262 7.17719 14.9116C7.93605 14.9651 8.7007 14.9715 9.46272 14.9693C10.6126 14.9656 11.7646 14.9693 12.9118 14.9068C13.8351 14.8534 14.5191 14.3694 14.8227 13.457C14.9388 13.0967 14.9992 12.7205 15.0018 12.3415C15.0213 10.8088 15.0119 9.27511 15.0087 7.74191C15.0082 7.52206 14.9944 7.30245 14.9676 7.08429C14.8443 6.07836 14.2187 5.36304 13.2507 5.13921C12.9878 5.07953 12.7195 5.04766 12.4502 5.04412C11.6481 5.03503 10.8471 5.04251 10.045 5.04251V5.04038Z" fill="white"/>
<path d="M10.0272 13.2502C9.60419 13.2496 9.18545 13.1639 8.7953 12.9981C8.40514 12.8323 8.05132 12.5896 7.75434 12.2842C7.45735 11.9788 7.22311 11.6166 7.06517 11.2188C6.90723 10.8209 6.82875 10.3952 6.83426 9.9664C6.83739 9.53761 6.92441 9.1137 7.09029 8.71923C7.25616 8.32477 7.4976 7.96759 7.8006 7.66838C8.1036 7.36916 8.46216 7.13387 8.85549 6.97611C9.24883 6.81836 9.66914 6.74129 10.0921 6.74935C10.9396 6.7616 11.7478 7.11426 12.3391 7.72993C12.9304 8.3456 13.2566 9.17396 13.2461 10.0332C13.2397 10.8924 12.897 11.7138 12.2935 12.317C11.6899 12.9203 10.8748 13.2559 10.0272 13.2502ZM10.0668 7.90379C9.7951 7.89949 9.52527 7.9496 9.27275 8.05127C9.02024 8.15293 8.79001 8.30415 8.59528 8.49624C8.40056 8.68832 8.24517 8.9175 8.13803 9.17061C8.0309 9.42373 7.97412 9.6958 7.97096 9.97121C7.94619 11.1219 8.85945 12.0728 10.0109 12.0958C11.1497 12.1188 12.0814 11.1994 12.1062 10.0284C12.1107 9.7529 12.0615 9.47924 11.9613 9.22313C11.8611 8.96702 11.7119 8.73352 11.5224 8.53607C11.3329 8.33861 11.1067 8.1811 10.8569 8.07259C10.6071 7.96408 10.3385 7.90671 10.0668 7.90379Z" fill="white"/>
<path d="M13.2771 7.41229C13.1934 7.41492 13.1099 7.40065 13.0317 7.37032C12.9534 7.33998 12.8819 7.29418 12.8212 7.23558C12.7606 7.17698 12.712 7.10674 12.6784 7.02896C12.6447 6.95117 12.6266 6.86737 12.6252 6.78245C12.623 6.69606 12.6378 6.61009 12.6689 6.52962C12.6999 6.44915 12.7466 6.3758 12.8061 6.3139C12.8656 6.25201 12.9367 6.20282 13.0152 6.16924C13.0938 6.13567 13.1782 6.11839 13.2634 6.11842C13.4323 6.11756 13.5948 6.18448 13.7152 6.30458C13.8357 6.42469 13.9044 6.58822 13.9063 6.75948C13.9081 6.93059 13.8429 7.09544 13.7249 7.21784C13.607 7.34024 13.4459 7.41017 13.2771 7.41229Z" fill="white"/>
<path d="M10.0462 5.04243C10.8483 5.04243 11.6509 5.03495 12.4524 5.0467C12.7218 5.05024 12.9901 5.08211 13.2529 5.14179C14.221 5.36563 14.8465 6.08095 14.9698 7.08688C14.9967 7.30503 15.0104 7.52465 15.0109 7.7445C15.0141 9.2777 15.0236 10.8114 15.0041 12.3441C15.0015 12.7231 14.9411 13.0993 14.8249 13.4595C14.5214 14.372 13.8373 14.8576 12.9141 14.9094C11.7668 14.974 10.6148 14.9682 9.46496 14.9719C8.70295 14.9719 7.93671 14.9719 7.17944 14.9142C6.02008 14.8287 5.24067 14.0312 5.10787 12.8521C5.08444 12.6471 5.0723 12.441 5.07151 12.2346C5.06834 10.6944 5.05886 9.15429 5.07836 7.61468C5.08332 7.24916 5.14393 6.8866 5.25806 6.53984C5.56318 5.62633 6.24721 5.15782 7.16943 5.0873C7.9678 5.0264 8.77145 5.04029 9.57299 5.02266C9.73109 5.01946 9.88918 5.02266 10.0473 5.02266L10.0462 5.04243ZM10.0288 13.2501C10.8764 13.2558 11.6915 12.9202 12.2951 12.3169C12.8986 11.7137 13.2412 10.8923 13.2476 10.0331C13.2582 9.17386 12.932 8.3455 12.3407 7.72983C11.7494 7.11416 10.9412 6.7615 10.0937 6.74925C9.67073 6.74119 9.25042 6.81826 8.85708 6.97601C8.46375 7.13377 8.10519 7.36906 7.80219 7.66828C7.49918 7.96749 7.25775 8.32467 7.09188 8.71913C6.926 9.1136 6.83898 9.53751 6.83584 9.9663C6.83034 10.3951 6.90882 10.8208 7.06676 11.2187C7.2247 11.6165 7.45894 11.9787 7.75593 12.2841C8.05291 12.5895 8.40673 12.8322 8.79688 12.998C9.18704 13.1638 9.60578 13.2495 10.0288 13.2501ZM13.2777 7.41221C13.4465 7.4101 13.6075 7.34017 13.7255 7.21777C13.8435 7.09537 13.9087 6.93052 13.9069 6.7594C13.905 6.58814 13.8363 6.42461 13.7158 6.30451C13.5954 6.18441 13.4329 6.11749 13.264 6.11834C13.1787 6.11831 13.0944 6.13559 13.0158 6.16917C12.9373 6.20275 12.8661 6.25193 12.8067 6.31383C12.7472 6.37573 12.7005 6.44907 12.6695 6.52955C12.6384 6.61002 12.6236 6.69599 12.6258 6.78237C12.6272 6.8673 12.6453 6.95109 12.6789 7.02888C12.7126 7.10667 12.7611 7.17691 12.8218 7.23551C12.8824 7.29411 12.954 7.33991 13.0322 7.37024C13.1105 7.40058 13.1939 7.41485 13.2777 7.41221Z" fill="#2F383B"/>
<path d="M10.0679 7.90368C10.3399 7.90646 10.6087 7.96377 10.8587 8.07232C11.1087 8.18087 11.3351 8.3385 11.5248 8.53614C11.7145 8.73378 11.8637 8.96752 11.9638 9.22388C12.064 9.48025 12.1131 9.75417 12.1084 10.0299C12.0836 11.2009 11.1519 12.1203 10.0131 12.0973C8.86164 12.0743 7.94838 11.1234 7.97315 9.9727C7.9761 9.69724 8.03269 9.42509 8.13967 9.17186C8.24665 8.91863 8.40191 8.68931 8.59655 8.49707C8.79118 8.30483 9.02135 8.15345 9.27385 8.05162C9.52634 7.94979 9.79619 7.89952 10.0679 7.90368Z" fill="#2F383B"/>
</g>
<defs>
<clipPath id="clip0_704_1953">
<rect width="19.726" height="20" fill="white" transform="translate(0.177734)"/>
</clipPath>
</defs>
</svg>
