<svg width="21" height="20" viewBox="0 0 21 20" fill="none" xmlns="http://www.w3.org/2000/svg">
<g clip-path="url(#clip0_704_1950)">
<path d="M10.9306 19.9998H9.69775C9.65628 19.9853 9.61366 19.9745 9.57035 19.9674C8.73685 19.9154 7.9149 19.7431 7.12925 19.4556C3.54706 18.1103 1.3724 15.5389 0.605281 11.7412C0.530795 11.376 0.502542 10.9973 0.451172 10.6253V9.37321C0.462473 9.31686 0.475315 9.26052 0.485589 9.20365C0.598089 8.56509 0.65922 7.91192 0.829767 7.28953C2.55323 1.00823 9.67206 -1.93053 15.2575 1.35724C17.8902 2.9067 19.4698 5.25228 20.0287 8.29589C20.094 8.65273 20.1284 9.0148 20.1772 9.37477V10.5867C20.1664 10.6493 20.1531 10.7114 20.1443 10.7745C20.093 11.1668 20.057 11.5633 19.983 11.9515C19.2125 15.9774 16.0024 19.1577 12.0125 19.8459C11.6534 19.9085 11.2902 19.9492 10.9306 19.9998ZM8.81162 8.24633V15.2559H10.9358V15.0175C10.9358 13.9219 10.9327 12.8305 10.9358 11.7376C10.9358 11.3463 10.9676 10.955 11.1448 10.5971C11.376 10.1276 11.8306 9.91891 12.4517 9.99925C12.8852 10.0514 13.1801 10.3451 13.2736 10.8538C13.3219 11.1158 13.347 11.3818 13.3486 11.6484C13.3568 12.7804 13.3527 13.9131 13.3532 15.0452V15.2538H15.4953C15.4989 15.1897 15.5051 15.1391 15.5051 15.0879C15.5051 13.8359 15.5185 12.589 15.4974 11.3395C15.4909 10.8391 15.4407 10.3403 15.3474 9.849C15.1866 9.02628 14.7351 8.41432 13.9008 8.19416C13.5534 8.10278 13.1952 8.06064 12.8364 8.06895C12.033 8.08878 11.3734 8.41849 10.9265 9.12331C10.9019 9.14934 10.8747 9.17276 10.8454 9.19322V8.24738L8.81162 8.24633ZM7.43388 15.2549V8.25259H5.30819V15.2549H7.43388ZM6.36179 7.27283C6.60914 7.27283 6.85093 7.19825 7.05651 7.05856C7.26209 6.91886 7.42221 6.72034 7.51658 6.48814C7.61096 6.25593 7.63534 6.0005 7.58663 5.75421C7.53792 5.50792 7.41832 5.28186 7.24298 5.10467C7.06765 4.92748 6.84446 4.80714 6.60172 4.75889C6.35897 4.71064 6.10758 4.73666 5.87941 4.83365C5.65124 4.93064 5.45655 5.09424 5.32002 5.30371C5.18349 5.51319 5.11125 5.75911 5.11247 6.01031C5.1145 6.3457 5.24695 6.66668 5.48094 6.90335C5.71494 7.14002 6.03154 7.27319 6.36179 7.27388V7.27283Z" fill="white"/>
</g>
<defs>
<clipPath id="clip0_704_1950">
<rect width="19.726" height="20" fill="white" transform="translate(0.451172)"/>
</clipPath>
</defs>
</svg>
