<svg width="20" height="21" viewBox="0 0 20 21" fill="none" xmlns="http://www.w3.org/2000/svg">
<g clip-path="url(#clip0_704_1990)">
<path d="M0.273438 11.1264V9.87855C0.288206 9.74878 0.305422 9.62898 0.320191 9.49421C0.541477 7.32285 1.45611 5.28417 2.92496 3.68815C4.39381 2.09213 6.33655 1.02612 8.45774 0.652204C8.80973 0.592309 9.16663 0.552354 9.52108 0.502441H10.7518C10.801 0.502441 10.8503 0.529864 10.8995 0.534855C12.4163 0.636539 13.886 1.11014 15.1824 1.91495C16.4089 2.6439 17.4631 3.63628 18.2711 4.82234C19.079 6.00839 19.621 7.35936 19.8591 8.78044C19.9256 9.1423 19.9601 9.51169 20.0093 9.87855V11.1264C19.9822 11.3759 19.9551 11.6005 19.9231 11.8401C19.6388 13.9393 18.7057 15.8933 17.2579 17.4213C15.81 18.9494 13.9218 19.973 11.8644 20.3452C11.5001 20.4126 11.126 20.45 10.7641 20.4999H9.5334C9.28725 20.47 9.04112 20.445 8.80974 20.4101C6.74302 20.1184 4.82034 19.1711 3.31704 17.7039C1.81375 16.2367 0.806953 14.3247 0.440829 12.2419C0.359601 11.8726 0.322666 11.4982 0.273438 11.1264ZM10.1364 17.0035C10.2103 16.9212 10.2743 16.8588 10.3284 16.7889C11.0669 15.8905 11.8053 15.007 12.5093 14.0862C13.3081 13.0663 13.9886 11.9568 14.5375 10.7794C14.8895 9.99831 15.1233 9.19725 14.9855 8.32378C14.6778 6.38217 13.644 4.99209 11.825 4.31328C10.006 3.63447 8.33223 3.98637 6.87259 5.27162C5.5951 6.39715 4.65729 8.59827 5.73294 10.7894C6.20911 11.754 6.75885 12.6794 7.37717 13.5571C8.23042 14.7591 9.15172 15.9098 10.1364 17.0035Z" fill="white"/>
<path d="M10.1188 16.9363C9.13347 15.843 8.21214 14.6922 7.35952 13.4898C6.7412 12.612 6.19143 11.6866 5.71526 10.7221C4.63223 8.53092 5.57742 6.32981 6.85491 5.20428C8.31455 3.91903 9.99818 3.57211 11.8073 4.24593C13.6165 4.91975 14.6601 6.31483 14.9678 8.25643C15.1057 9.1299 14.8718 9.93346 14.5199 10.7121C13.971 11.8895 13.2904 12.999 12.4916 14.0188C11.7901 14.9397 11.0418 15.8232 10.3108 16.7216C10.2591 16.7915 10.1951 16.8564 10.1188 16.9363ZM8.39578 9.10992C8.39238 9.48129 8.49774 9.84531 8.6985 10.1559C8.89927 10.4666 9.18643 10.7098 9.52362 10.8549C9.86081 11 10.2329 11.0404 10.5927 10.971C10.9526 10.9016 11.284 10.7255 11.5451 10.465C11.8061 10.2045 11.9851 9.87128 12.0593 9.5076C12.1335 9.14392 12.0996 8.76607 11.962 8.42191C11.8243 8.07776 11.589 7.78277 11.2858 7.57428C10.9827 7.36578 10.6254 7.25317 10.2591 7.25069C9.7692 7.24802 9.29822 7.44205 8.94906 7.79045C8.5999 8.13885 8.40098 8.61326 8.39578 9.10992Z" fill="black"/>
<path d="M8.28518 9.01014C8.28518 7.78478 9.1885 6.79898 10.2888 6.80397C11.389 6.80897 12.2752 7.81971 12.2579 9.06503C12.2407 10.3104 11.3447 11.2687 10.2445 11.2587C9.14421 11.2487 8.28025 10.233 8.28518 9.01014Z" fill="white"/>
</g>
<defs>
<clipPath id="clip0_704_1990">
<rect width="19.726" height="20" fill="white" transform="translate(0.273438 0.5)"/>
</clipPath>
</defs>
</svg>
