<svg width="20" height="20" viewBox="0 0 20 20" fill="none" xmlns="http://www.w3.org/2000/svg">
<g clip-path="url(#clip0_704_1975)">
<path d="M10.128 0.00533095C4.63273 0.0232615 0.233065 4.51013 0.275698 10.1034C0.317264 15.6514 4.79154 20.0813 10.2773 20.0043C15.6905 19.9283 20.0124 15.4689 20.0007 9.96209C19.9889 4.45529 15.5434 -0.0168186 10.128 0.00533095Z" fill="white"/>
<path d="M10.128 0.00529655C15.5434 -0.0115793 19.9889 4.46791 20.0007 9.96206C20.0124 15.4562 15.6905 19.9283 10.2773 20.0042C4.79154 20.0812 0.317264 15.6513 0.275698 10.1034C0.233065 4.50482 4.63273 0.0179534 10.128 0.00529655ZM13.269 16.0121C13.3461 15.9921 13.4206 15.9631 13.4907 15.9256C14.3852 15.3627 15.1914 14.6729 15.8834 13.8783C16.135 13.5851 16.1222 13.4153 15.8163 13.1832C15.012 12.5617 14.1401 12.0311 13.2168 11.6011C12.913 11.4619 12.815 11.4904 12.5858 11.7425C12.3353 12.0177 12.0923 12.2994 11.8483 12.5863C11.8209 12.6298 11.7776 12.6613 11.7275 12.6743C11.6773 12.6872 11.624 12.6806 11.5786 12.6559C11.0894 12.4259 10.5704 12.2477 10.1174 11.9608C8.86969 11.1812 7.95136 9.97884 7.53387 8.57824C7.5089 8.52216 7.50395 8.45935 7.51983 8.40012C7.53571 8.34089 7.57148 8.28876 7.62126 8.25231C7.88558 8.02132 8.15416 7.78823 8.40569 7.54881C8.67961 7.29462 8.70413 7.20285 8.54959 6.85795C8.13133 5.94728 7.61877 5.08198 7.02014 4.27594C6.7782 3.94475 6.60874 3.92577 6.30499 4.19473C5.52193 4.89816 4.84753 5.71161 4.30339 6.60903C4.23693 6.72896 4.21363 6.86769 4.23731 7.00245C4.31054 7.4176 4.41058 7.82768 4.53681 8.23017C5.03241 9.69204 5.87653 10.9419 6.88159 12.0821C8.17975 13.5503 9.67189 14.7622 11.4795 15.5353C12.0482 15.782 12.6517 15.941 13.269 16.0068V16.0121ZM10.565 4.82125C13.4065 5.13767 14.9487 6.71345 15.2546 9.56758H16.0465C16.0795 6.33269 13.2892 3.911 10.5693 4.0344L10.565 4.82125ZM13.9255 9.57285C13.9628 7.43594 11.9964 6.01943 10.5682 6.1903V7.00033C11.2397 7.01129 11.8796 7.28468 12.3481 7.76081C12.8244 8.24731 13.0947 8.89555 13.1038 9.57285H13.9255Z" fill="white"/>
<path d="M13.2669 16.0068C12.6504 15.9372 12.0484 15.7746 11.4817 15.5248C9.66978 14.7516 8.17764 13.5397 6.88375 12.0715C5.87443 10.9314 5.03031 9.6815 4.53897 8.21963C4.41274 7.81714 4.31271 7.40706 4.23948 6.99191C4.2158 6.85715 4.2391 6.71842 4.30556 6.59849C4.8497 5.70107 5.5241 4.88762 6.30716 4.18419C6.61091 3.91523 6.78037 3.93421 7.02231 4.2654C7.62094 5.07144 8.13349 5.93674 8.55175 6.84741C8.70629 7.19231 8.68178 7.28408 8.40787 7.53827C8.151 7.77769 7.88775 8.01078 7.62343 8.24177C7.57365 8.27822 7.53788 8.33034 7.522 8.38957C7.50612 8.44879 7.51106 8.51162 7.53603 8.5677C7.95352 9.9683 8.87186 11.1706 10.1196 11.9502C10.5725 12.2371 11.0916 12.4154 11.5808 12.6453C11.6262 12.6701 11.6795 12.6767 11.7296 12.6637C11.7798 12.6508 11.823 12.6193 11.8504 12.5757C12.0945 12.293 12.3375 12.0114 12.588 11.7319C12.8171 11.4798 12.9152 11.4513 13.2189 11.5906C14.1423 12.0205 15.0142 12.5512 15.8185 13.1727C16.1243 13.4047 16.1382 13.5746 15.8856 13.8678C15.1935 14.6624 14.3874 15.3521 13.4928 15.915C13.4216 15.9547 13.3457 15.9855 13.2669 16.0068Z" fill="#2F383B"/>
<path d="M10.5645 4.816V4.02917C13.2844 3.90577 16.0747 6.32745 16.0417 9.56234H15.2498C14.9481 6.70821 13.4059 5.13137 10.5645 4.816Z" fill="#2F383B"/>
<path d="M13.9237 9.56754H13.102C13.0929 8.89025 12.8226 8.24199 12.3463 7.75549C11.8777 7.27936 11.2379 7.00599 10.5664 6.99503V6.18498C11.9946 6.01728 13.961 7.43064 13.9237 9.56754Z" fill="#2F383B"/>
</g>
<defs>
<clipPath id="clip0_704_1975">
<rect width="19.726" height="20" fill="white" transform="translate(0.273438)"/>
</clipPath>
</defs>
</svg>
