<svg width="21" height="20" viewBox="0 0 21 20" fill="none" xmlns="http://www.w3.org/2000/svg">
<g clip-path="url(#clip0_704_1946)">
<path d="M11.168 19.9998H10.0892C9.80941 19.968 9.52861 19.9431 9.24975 19.902C7.8602 19.7131 6.52803 19.2192 5.34613 18.4547C5.29311 18.4154 5.23125 18.39 5.16613 18.381C5.10102 18.3719 5.03471 18.3795 4.97319 18.4029C3.84664 18.7751 2.71719 19.1365 1.5887 19.5043C1.52695 19.5244 1.46423 19.543 1.37642 19.5699C1.77059 18.3809 2.14836 17.2296 2.53433 16.0812C2.58644 15.9266 2.58258 15.8112 2.48271 15.6708C1.66373 14.4928 1.11587 13.1435 0.879481 11.7224C0.809041 11.3081 0.775268 10.887 0.724609 10.4693V9.41484C0.736671 9.34539 0.75018 9.27643 0.760312 9.20746C0.823515 8.7707 0.860182 8.32709 0.953298 7.89767C1.47339 5.48155 2.70561 3.50757 4.6538 2.02855C7.04537 0.213526 9.73463 -0.3861 12.6627 0.233581C15.022 0.732946 16.9407 1.98502 18.4079 3.91841C19.9913 6.00635 20.6504 8.38334 20.4029 11C20.2027 13.1124 19.396 14.9797 18.0099 16.5757C16.4809 18.3364 14.5733 19.4315 12.2912 19.8423C11.9187 19.9118 11.5424 19.9489 11.168 19.9998ZM13.769 15.6356C14.0889 15.5735 14.3692 15.5534 14.6258 15.4644C16.0207 14.9797 16.4939 14.2975 16.5345 12.9916C16.5407 12.7837 16.4631 12.6463 16.2783 12.5573C15.5493 12.2056 14.8251 11.8437 14.0932 11.4974C13.7048 11.314 13.4834 11.3849 13.2291 11.7322C13.0361 11.9933 12.8504 12.257 12.6526 12.5147C12.3583 12.8967 12.1412 12.9505 11.6992 12.7681C10.0888 12.1029 8.88308 10.9658 7.97701 9.48135C7.75604 9.11992 7.76714 9.01281 8.04986 8.68903C8.22837 8.48458 8.41461 8.28601 8.58057 8.07228C8.73737 7.87126 8.88308 7.65166 8.77018 7.37678C8.43246 6.54924 8.08701 5.72316 7.73337 4.90197C7.68898 4.79926 7.58477 4.67699 7.48683 4.65254C6.96914 4.52195 6.4283 4.49309 5.99601 4.84818C5.03108 5.64197 4.73003 6.71015 4.91529 7.92408C5.04556 8.77413 5.44021 9.51902 5.91689 10.2228C6.68256 11.3546 7.54762 12.3954 8.57913 13.2909C9.72643 14.2877 11.0585 14.9206 12.4934 15.348C12.9218 15.4752 13.3657 15.5461 13.769 15.6356Z" fill="white"/>
<path d="M13.7691 15.6358C13.3658 15.5463 12.9219 15.4754 12.4944 15.3477C11.0596 14.9202 9.72751 14.2874 8.58021 13.2906C7.54871 12.395 6.68365 11.3528 5.92039 10.2225C5.44371 9.51869 5.04906 8.7738 4.91879 7.92376C4.73353 6.70983 5.03651 5.64165 5.99951 4.84785C6.43373 4.4913 6.97264 4.52016 7.49033 4.65221C7.58682 4.67667 7.69248 4.79894 7.73687 4.90165C8.09051 5.72284 8.43354 6.54892 8.77368 7.37646C8.88658 7.65133 8.74087 7.87094 8.58407 8.07196C8.41714 8.28569 8.23091 8.48426 8.05336 8.6887C7.77064 9.01248 7.75954 9.11959 7.98051 9.48103C8.88658 10.9654 10.0923 12.1026 11.7027 12.7677C12.1447 12.9502 12.3618 12.8964 12.6561 12.5144C12.8539 12.2586 13.042 11.995 13.2326 11.7318C13.4869 11.3846 13.7083 11.3137 14.0967 11.4971C14.8286 11.8433 15.5528 12.2053 16.2818 12.5569C16.4666 12.646 16.5442 12.7834 16.538 12.9913C16.4975 14.2971 16.0242 14.9794 14.6293 15.4641C14.3693 15.5536 14.089 15.5737 13.7691 15.6358Z" fill="#2F383B"/>
</g>
<defs>
<clipPath id="clip0_704_1946">
<rect width="19.726" height="20" fill="white" transform="translate(0.726562)"/>
</clipPath>
</defs>
</svg>
